# xmcd
#
# Track frame offsets: 
#        150
#        13855
#        26587
#        40890
#        54692
#        65920
#        80082
#        94582
#        108420
#        119192
#        132637
#        146727
#
# Disc length: 2149 seconds
#
# Revision: 3
# Processed by: cddbd v1.5.2PL0 Copyright (c) Steve Scherf et al.
# Submitted via: ExactAudioCopy v0.99pb5
#
DISCID=ba08630c
DTITLE=Count Basie And His Orchestra Featuring Lester Young - Lester L
DTITLE=eaps In
DYEAR=1939
DGENRE=Jazz
TTITLE0=Rock-A-Bye Basie
TTITLE1=Taxi War Dance
TTITLE2=Jump For Me
TTITLE3=12th Street Rag
TTITLE4=Clap Hands, Here Comes Charlie
TTITLE5=Dickie's Dream
TTITLE6=Lester Leaps In
TTITLE7=Song Of The Islands
TTITLE8=Moten Swing
TTITLE9=Shoe Shine Boy
TTITLE10=Lady, Be Good
TTITLE11=Boogie Woogie
EXTD=YEAR: 1939
EXTT0=
EXTT1=
EXTT2=
EXTT3=
EXTT4=
EXTT5=
EXTT6=
EXTT7=
EXTT8=
EXTT9=
EXTT10=
EXTT11=
PLAYORDER=
